/* XPM */
static char *Def_MTODlg_WxStaticBitmap1_XPM[]={
/* Def_MTODlg_WxStaticBitmap1 */
"50 38 516 2",
"      c None",
" 0    c #4A7491",
" 1    c #7B9AAF",
" 2    c #6C8EA6",
" 3    c #7797AC",
" 4    c #7494AA",
" 5    c #537C97",
" 6    c #B3C4D0",
" 7    c #ECF0F3",
" 8    c #FFFFFF",
" 9    c #F9FAFB",
" a    c #FBFCFC",
" b    c #FEFEFE",
" c    c #FBFCFD",
" d    c #F8FAFB",
" e    c #F9FBFB",
" f    c #FBFBFC",
" g    c #6487A0",
" h    c #3A6888",
" i    c #26597C",
" j    c #2A5C7E",
" k    c #406D8B",
" l    c #668AA2",
" m    c #6589A2",
" n    c #6A8DA4",
" o    c #8DA7BA",
" p    c #A1B7C6",
" q    c #D8E1E7",
" r    c #FDFEFE",
" s    c #FCFDFD",
" t    c #FDFDFE",
" u    c #E5EAEF",
" v    c #D0DBE3",
" w    c #CBD7DF",
" x    c #D5DFE6",
" y    c #E1E8ED",
" z    c #DDE5EA",
" A    c #E9EEF1",
" B    c #3B6988",
" C    c #0D466D",
" D    c #074069",
" E    c #09426A",
" F    c #064068",
" G    c #0C446C",
" H    c #184E73",
" I    c #3B6888",
" J    c #6A8DA5",
" K    c #8BA6B9",
" L    c #6689A2",
" M    c #7494AB",
" N    c #CDD8E0",
" O    c #FCFCFD",
" P    c #D6E0E6",
" Q    c #A2B7C6",
" R    c #7192A9",
" S    c #587F9A",
" T    c #487390",
" U    c #45718E",
" V    c #426E8C",
" W    c #61859F",
" X    c #8AA5B8",
" Y    c #6D8FA6",
" Z    c #CFDAE2",
" &    c #FDFDFD",
"0     c #205478",
"00    c #0B446C",
"01    c #10486E",
"02    c #11486F",
"03    c #0F476E",
"04    c #0C456C",
"05    c #08416A",
"06    c #0B446B",
"07    c #2F5F81",
"08    c #61869F",
"09    c #60849E",
"0a    c #7091A8",
"0b    c #7998AD",
"0c    c #AEC1CE",
"0d    c #FFFFFE",
"0e    c #D5DFE5",
"0f    c #89A5B8",
"0g    c #4F7894",
"0h    c #386787",
"0i    c #316182",
"0j    c #44708E",
"0k    c #376586",
"0l    c #3E6B8A",
"0m    c #356484",
"0n    c #366585",
"0o    c #306081",
"0p    c #4B7592",
"0q    c #5C819C",
"0r    c #1A4F74",
"0s    c #98AFC0",
"0t    c #396787",
"0u    c #497391",
"0v    c #063F68",
"0w    c #0E466D",
"0x    c #10486F",
"0y    c #074169",
"0z    c #1D5176",
"0A    c #507995",
"0B    c #7C9AB0",
"0C    c #59809B",
"0D    c #6A8CA4",
"0E    c #ADBFCD",
"0F    c #577F9A",
"0G    c #386686",
"0H    c #346484",
"0I    c #316183",
"0J    c #326182",
"0K    c #577E99",
"0L    c #5D839D",
"0M    c #3A6787",
"0N    c #477290",
"0O    c #497390",
"0P    c #235679",
"0Q    c #678AA3",
"0R    c #B4C5D1",
"0S    c #D7E0E7",
"0T    c #12496F",
"0U    c #5C829C",
"0V    c #23577A",
"0W    c #0F466D",
"0X    c #053F68",
"0Y    c #194E73",
"0Z    c #4E7793",
"0&    c #6C8FA6",
"1     c #5D829C",
"10    c #7092A9",
"11    c #48728F",
"12    c #376585",
"13    c #3C6989",
"14    c #7696AC",
"15    c #7E9CB0",
"16    c #99B0C0",
"17    c #A5BAC8",
"18    c #9EB4C4",
"19    c #9EB5C3",
"1a    c #A3B8C6",
"1b    c #A0B5C4",
"1c    c #90AABB",
"1d    c #698BA3",
"1e    c #456F8E",
"1f    c #25587B",
"1g    c #9CB3C3",
"1h    c #AFC1CE",
"1i    c #B2C3D0",
"1j    c #EFF3F5",
"1k    c #1F5377",
"1l    c #3F6B8A",
"1m    c #0D456C",
"1n    c #033E67",
"1o    c #547C97",
"1p    c #3E6A89",
"1q    c #295B7D",
"1r    c #436E8D",
"1s    c #6B8DA5",
"1t    c #95ADBE",
"1u    c #AABDCB",
"1v    c #AEC0CD",
"1w    c #ACBFCC",
"1x    c #AFC2CE",
"1y    c #B0C2CE",
"1z    c #BBCAD4",
"1A    c #BCCCD6",
"1B    c #C5D2DB",
"1C    c #BDCCD7",
"1D    c #306182",
"1E    c #B4C6D1",
"1F    c #B7C8D3",
"1G    c #B5C6D1",
"1H    c #BACAD5",
"1I    c #7796AC",
"1J    c #295A7D",
"1K    c #053F67",
"1L    c #043E67",
"1M    c #1F5478",
"1N    c #45708E",
"1O    c #97AFC0",
"1P    c #7797AD",
"1Q    c #A5B9C8",
"1R    c #B9C9D3",
"1S    c #ABBECB",
"1T    c #A7BBC8",
"1U    c #B1C3CF",
"1V    c #B7C7D3",
"1W    c #C9D5DD",
"1X    c #EAEEF1",
"1Y    c #F5F7F8",
"1Z    c #FAFBFB",
"1&    c #47718F",
"2     c #B5C6D2",
"20    c #E1E8EC",
"21    c #FAFBFC",
"22    c #F0F4F6",
"23    c #356485",
"24    c #346384",
"25    c #285A7D",
"26    c #064069",
"27    c #23567A",
"28    c #6488A1",
"29    c #84A1B4",
"2a    c #92ABBC",
"2b    c #BBCBD5",
"2c    c #E4EAEE",
"2d    c #F6F8F9",
"2e    c #FFFEFE",
"2f    c #E1E7EC",
"2g    c #6589A1",
"2h    c #336283",
"2i    c #436F8D",
"2j    c #A6BBC9",
"2k    c #B8C8D4",
"2l    c #ADC0CD",
"2m    c #DFE6EB",
"2n    c #FCFCFE",
"2o    c #174D72",
"2p    c #567E99",
"2q    c #0A436B",
"2r    c #023C66",
"2s    c #25577B",
"2t    c #7998AE",
"2u    c #4D7693",
"2v    c #FCFCFC",
"2w    c #7A99AE",
"2x    c #DFE7EC",
"2y    c #D2DDE4",
"2z    c #A9BDCA",
"2A    c #E3E9ED",
"2B    c #FCFDFE",
"2C    c #4C7592",
"2D    c #0A436A",
"2E    c #0E476D",
"2F    c #10476E",
"2G    c #124A70",
"2H    c #084269",
"2I    c #537B96",
"2J    c #D1DBE3",
"2K    c #C2D0DA",
"2L    c #6287A0",
"2M    c #2D5E80",
"2N    c #B8C8D3",
"2O    c #A6BAC8",
"2P    c #EAEFF2",
"2Q    c #FAFCFC",
"2R    c #24577A",
"2S    c #517995",
"2T    c #054068",
"2U    c #003A64",
"2V    c #154B71",
"2W    c #60859E",
"2X    c #6588A2",
"2Y    c #88A4B7",
"2Z    c #F2F5F6",
"2&    c #F3F6F7",
"3     c #8AA5B7",
"30    c #1C5176",
"31    c #8EA8BB",
"32    c #E7ECF0",
"33    c #D4DEE5",
"34    c #A9BDCB",
"35    c #FEFDFE",
"36    c #336383",
"37    c #47728F",
"38    c #507894",
"39    c #326283",
"3a    c #144B70",
"3b    c #003761",
"3c    c #27597C",
"3d    c #406C8B",
"3e    c #5B819B",
"3f    c #416D8C",
"3g    c #D0DBE2",
"3h    c #DBE4E9",
"3i    c #B2C4D0",
"3j    c #B6C6D2",
"3k    c #B8C9D4",
"3l    c #DCE4E9",
"3m    c #FAFAFB",
"3n    c #205378",
"3o    c #8CA7B9",
"3p    c #6588A1",
"3q    c #356385",
"3r    c #25577A",
"3s    c #134A70",
"3t    c #003C65",
"3u    c #306082",
"3v    c #87A3B6",
"3w    c #5B819C",
"3x    c #1C5075",
"3y    c #D5DEE6",
"3z    c #BBCBD6",
"3A    c #AFC1CF",
"3B    c #CCD7E0",
"3C    c #B3C5D1",
"3D    c #1E5276",
"3E    c #62869F",
"3F    c #215478",
"3G    c #0F476D",
"3H    c #336284",
"3I    c #6F90A8",
"3J    c #E6ECF0",
"3K    c #9CB2C3",
"3L    c #3F6C8A",
"3M    c #2A5A7D",
"3N    c #285A7C",
"3O    c #A1B6C6",
"3P    c #CEDAE1",
"3Q    c #BDCCD6",
"3R    c #BFCED8",
"3S    c #D8E0E7",
"3T    c #F7F8FA",
"3U    c #154C71",
"3V    c #4E7794",
"3W    c #205377",
"3X    c #5F849E",
"3Y    c #4B7491",
"3Z    c #678AA2",
"3&    c #164C72",
"4     c #084169",
"40    c #EFF2F5",
"41    c #A4B8C7",
"42    c #26587B",
"43    c #B4C4D0",
"44    c #CED9E1",
"45    c #EEF2F5",
"46    c #C9D6DE",
"47    c #487290",
"48    c #1F5378",
"49    c #7495AB",
"4a    c #7D9AB0",
"4b    c #5D829D",
"4c    c #2A5B7D",
"4d    c #F7F9FA",
"4e    c #98B0C0",
"4f    c #416C8B",
"4g    c #336384",
"4h    c #426E8D",
"4i    c #003560",
"4j    c #386786",
"4k    c #829EB3",
"4l    c #9EB5C5",
"4m    c #C0CED9",
"4n    c #C2D0D9",
"4o    c #E3E9EE",
"4p    c #2B5C7F",
"4q    c #5A809B",
"4r    c #B0C2CF",
"4s    c #CCD8E0",
"4t    c #7C9AAF",
"4u    c #507895",
"4v    c #0B436B",
"4w    c #6387A0",
"4x    c #F8FAFA",
"4y    c #F4F6F8",
"4z    c #557D98",
"4A    c #3C6A89",
"4B    c #11486E",
"4C    c #2E5F81",
"4D    c #7B9AAE",
"4E    c #93ACBD",
"4F    c #A7BBC9",
"4G    c #E6EBEF",
"4H    c #59809A",
"4I    c #CAD6DF",
"4J    c #BCCBD6",
"4K    c #F5F7F9",
"4L    c #7F9CB1",
"4M    c #537B97",
"4N    c #0E466E",
"4O    c #567D99",
"4P    c #D9E2E7",
"4Q    c #416D8B",
"4R    c #2B5D7F",
"4S    c #6487A1",
"4T    c #225579",
"4U    c #033D66",
"4V    c #597F9A",
"4W    c #AABECB",
"4X    c #83A0B4",
"4Y    c #BAC9D5",
"4Z    c #D0DAE2",
"4&    c #E1E9ED",
"5     c #698CA4",
"50    c #547B97",
"51    c #3F6C8B",
"52    c #7897AD",
"53    c #F1F4F7",
"54    c #1B5075",
"55    c #B7C7D2",
"56    c #7595AB",
"57    c #8FA9BA",
"58    c #3D6A89",
"59    c #6B8EA5",
"5a    c #F3F6F8",
"5b    c #215578",
"5c    c #E2E8ED",
"5d    c #60859F",
"5e    c #376686",
"5f    c #215579",
"5g    c #5E839D",
"5h    c #BACAD4",
"5i    c #B9C9D4",
"5j    c #C4D1DB",
"5k    c #7293A9",
"5l    c #144A70",
"5m    c #587E99",
"5n    c #6E8FA7",
"5o    c #5E849E",
"5p    c #C8D5DE",
"5q    c #BFCDD8",
"5r    c #A8BCCA",
"5s    c #D8E2E8",
"5t    c #5A809A",
"5u    c #2F6081",
"5v    c #24577B",
"5w    c #C3D1DA",
"5x    c #BECDD7",
"5y    c #D2DCE3",
"5z    c #9FB4C5",
"5A    c #28597C",
"5B    c #11476E",
"5C    c #446F8D",
"5D    c #8DA8BA",
"5E    c #8EA8BA",
"5F    c #F2F5F7",
"5G    c #22557A",
"5H    c #4A7492",
"5I    c #0E476E",
"5J    c #A9BCCB",
"5K    c #D3DDE4",
"5L    c #E6EBF0",
"5M    c #194D73",
"5N    c #2F5E80",
"5O    c #235579",
"5P    c #366384",
"5Q    c #EDF1F4",
"5R    c #1B5175",
"5S    c #587F99",
"5T    c #C9D5DE",
"5U    c #2B5C7E",
"5V    c #839FB4",
"5W    c #A7BCCA",
"5X    c #2F5F80",
"5Y    c #497491",
"5Z    c #557C98",
"5&    c #5E849D",
"6     c #C1CFD9",
"60    c #F3F5F7",
"61    c #436F8E",
"62    c #023C65",
"63    c #ADC0CC",
"64    c #ADBFCC",
"65    c #EBF0F3",
"66    c #688BA3",
"67    c #9AB2C2",
"68    c #B7C8D2",
"69    c #BAC9D4",
"6a    c #EBEFF2",
"6b    c #7595AC",
"6c    c #446F8E",
"6d    c #3D6989",
"6e    c #86A2B5",
"6f    c #8FA9BB",
"6g    c #F5F8F9",
"6h    c #89A3B7",
"6i    c #346283",
"6j    c #A0B6C5",
"6k    c #9FB5C4",
"6l    c #85A1B4",
"6m    c #225679",
"6n    c #A3B8C7",
"6o    c #366485",
"6p    c #11496F",
"6q    c #7E9BB0",
"6r    c #6286A0",
"6s    c #85A2B5",
"6t    c #EDF1F3",
"6u    c #074068",
"6v    c #46728F",
"6w    c #3D6A8A",
"6x    c #326183",
"6y    c #2D5D7F",
"6z    c #567D98",
"6A    c #91ABBC",
"6B    c #61859E",
"6C    c #819EB2",
"6D    c #3A6887",
"6E    c #89A4B7",
"6F    c #416E8C",
"6G    c #809EB2",
"6H    c #FEFEFF",
"6I    c #C6D3DC",
"6J    c #DEE5EB",
"6K    c #EAEEF2",
"6L    c #85A1B5",
"6M    c #527A96",
"6N    c #C8D5DD",
"6O    c #DBE3E8",
"6P    c #D5DEE5",
"6Q    c #D6DFE6",
"6R    c #DAE3E8",
"6S    c #F0F3F6",
"6T    c #2C5D7F",
"6U    c #4F7794",
"6V    c #F4F7F8",
"6W    c #4D7793",
"6X    c #517996",
"6Y    c #E4EAEF",
"6Z    c #96AEBF",
"6&    c #8AA6B8",
"7     c #91AABC",
"70    c #E0E8EC",
"71    c #C5D3DC",
"72    c #E3EAEE",
"   0 1 2 3 4 5 6 7 8 8 9 a b b b 8 8 8 8 b b b b c d 9 b 8 8 8 8 8 8 8 8 e f b b b 8 8 8 8 8 8 8 8 8",
" g h i j k l m n o p q 8 8 r s b 8 b b b b t c b 8 8 8 s u v w w x y z A 8 8 s 8 8 b 8 8 8 8 8 8 8 8",
" B C D E F G H I J K L M N 8 8 8 O b b s t 8 8 8 P Q R S T S U I V W X Y L Z 8 & t b 8 b 8 8 8 8 8 8",
" S0 000102030405060708090a0b0c s 8 b0d 8 80e0f0g0h0i0i0j0k0l h0m0i0n0o0p0q0r0s 8 8 8 b 8 b 8 8 8 8 8",
"0t0u0v010w03030x030y F0z0A0B0C0D0E 8 a0c0F0i0k0t0G0H0I0G0J0K0L0M0N0D m0O0P0Q 20R0S 9 8 b 8 b 8 8 8 8",
"0T0U0V E0303030W030x0x G0X0Y0Z0&1 10110712130J0J0Z0K1415161718191a1b1c1d1e1f1g1h1i0R1j 8 r 8 8 8 8 8",
"181k1l030w0w0303030w0303021m1n0r1o0l1l1p1q1r1s1t1u1v1w1x0c1h1y1z1A1B1C091D0m m1E1F1G1H 9 b b 8 8 8 8",
" 81I1J V1K0x0w030303030w0w0302041L1M0T1N1O1P1Q1R1S1T1U1V1W z1X1Y1Z b 8 b0A1&081x2 0R1F20 8 & 8 8 8 8",
"212223242526010w0303030303030w030204062728291v2a2b2c A2d2e 8 8 8 8 O s2f2g2h2i2j2k2l2l2m b2n 8 8 8 8",
" 9 8 N2o2p0Y2q030w030303030303030w03032q2r2s2t W2u2l 8 8 a & b b b2v 82w0Q25 S2x2y2j2z2A 82B 8 8 8 8",
"0d a 81O0z2C2D0w032E03030303030303030w2F2G2D2H B0b0U2I2J 8 8 O 82v 82K 22L2M1i 72N1Q2O2P 8 r 8 8 8 8",
" 8 b2Q 80Q2R2S2T0303030303030303030w0304 E0w G2U2V2W2X2i2Y2Z 8 f s2&0A3 303132331w341A2& b35 8 8 8 8",
" b 8 & &2d0g2M36 G030w03030303030303 G2o37380G393a3b3c 30K3d2b 8 8283e3f0N3g3h3i3j3k3l s 8 & 8 8 8 8",
" b 82e3m 83i3n0K03 G030w030303030301 F0g3o3p3q3r0l2i3s3t0O 43u3v2Y243w3x1F3y1R3z3A3B2c b b b 8 8 8 8",
" 8 b21 83C3D3E3F0k2o E2F0w03030303033G3H3I 83J3K3L3M0O3d0X3s W0U3N0U273O3P 63Q3k3R3S3T b b 8 8 8 8 8",
"0d a 81V3U3V3W3X3Y3Z3&2D010w0303032F4 2C1N40 8 8 a41 I1k1o2426422S252I0R3z1w431C4445 8 & 8 b 8 8 8 8",
"1Z 8460r4748493g2j4a4b3&2q2F0w03033G4 2h4c2k r d 8 84d4e4f4g4h0T4i4j0a4k4l4m0R4n4o 8 b b 8 8 8 8 8 8",
" s2P4p0g1q4q w4r4s4t2V4u0106030w03034v0  I4w 8 s &4x 84y4z1o V1k4A4B4C4D4E2t4F4G b s b 8 8 8 8 8 8 8",
" 83Z4H I474I1v4J3P4K4L0w4M0T1m030w4N01 F4O0M4P & b 82b j4Q1N4R4S4T0m0r4U4V0a B4W 8 8 s 8 b b 8 8 8 8",
"4X1&3X2R2k3R4Y4Z4& 8 85 36501L0w030w03 F395152 8531I54 02h I1w55560Q57582D0G140k595a 8 c b 8 b 8 8 8",
"5b0a3x X3z4W445c 8 & s &5d2F1o060w030w0w2F I0l1x5e242u5f5g5h3j5i5h5j5k5l5m1J5l5n5o h5p 8 s r 8 b 8 8",
"15510p5q5r3C5s O b b & r b5t0i0A F0w03030y5u 25v T0G3c X5w2N1h1S5x5y3J5z5A2M475B5C 3425D 8 8 O 8 b b",
"562R5E2N1u5x5F 8 & 8 8 s r e0u5G5H4 0w035I060Z 02R0K5J1G0R1E1h5x5K2P 8 85L5d5M0U5N5O m5P4V5Q 8 c 8 8",
"0m5R5S5i0c5T 8 & b b b r21 c3T4M5U1N4v2F030w E585V5i0R5W1w3R2J2x21 8 b a 8 81u5X0i5Y5O5Z5&0J6  8 O b",
"0i1f2u2b1H3R 8 r a O b 8 8 8601u0i61 I620x010y5d K63641A4I z d 8 8 b 8 8 t O 865661k5Y0i V0U0i67 8 &",
"115f 33Q686944 8 8 8 86a1C6b6c6d 20t4T2s E2F1m0T6e6f N y6g 8 8 b b 8 b b 8 b O 8 85i5e0o0K1r R5Z6h 9",
"5S6i4M4W5r3Q6j6k p6l3X3d4C6m0p23273V 46n6o F6p E0N481u 8 & b b 8 b b 8 8 b b 8 r a 8 96q246r W6s p6t",
"6u6v5e2h0K 3 20O5C1J6w6x6o1f6y6z6A0R1E6B582I1L0454 T2440 O s 8 b 8 8 8 8 8 8 b 8 b s 8 8445&6C2z6 6g",
"170G42 k6D390i0t V6o0l0Z2S566E1F1V2K0e3P373c4h G0X6F5U6G 8 a b6H 8 8 8 8 8 8 8 8 b 8 b2v 8 86I6J3l1Y",
" 86K6L6M0g5  m282t14315r1i6N6O A2Z & r 8400l5C47 F013d2o0S b s0d b 8 8 8 8 8 8 8 8 b b 8 s b 8 8 8 8",
" a 8 8 & y6P6Q6R326S & 8 8 8 8 8 8 8 b a 8401r0r470y4T6T6U s a t 8 8 8 8 8 8 8 8 8 8 8 b 8 b s r b b",
" 8 t a b 8 8 8 8 8 8 b t s s r r b b b 82v 86V6W4T6X4U0g0 6k 8 a b b 8 8 8 8 8 8 8 8 8 8 8 8 8 8 8 8",
" b b b b r t t r b b b b b 8 b 8 8 8 8 b 8 O 8214O3n2u6p T1J6Y b s 8 b 8 8 8 8 8 8 8 8 8 8 8 8 8 8 8",
" 8 8 8 8 8 8 8 8 8 8 8 8 8 8 8 8 8 8 8 8 b 8 s b O0K5f 0360A l 8 O b 8 8 8 8 8 8 8 8 8 8 8 8 8 8 8 8",
" 8 8 8 8 8 8 8 8 8 8 8 8 8 8 8 8 8 8 8 8 8 b 8 s b O S6T5t l 34r 8 O b 8 8 8 8 8 8 8 8 8 8 8 8 8 8 8",
" 8 8 8 8 8 8 8 8 8 8 8 8 8 8 8 8 8 8 8 8 8 8 b 8 & b b0Q282t6Z6& 7 b & 8 8 8 8 8 8 8 8 8 8 8 8 8 8 8",
" 8 8 8 8 8 8 8 8 8 8 8 8 8 8 8 8 8 8 8 8 8 8 8 b 8 & & 81I1t4W7 70 82n 8 8 8 8 8 8 8 8 8 8 8 8 8 8 8",
" 8 8 8 8 8 8 8 8 8 8 8 8 8 8 8 8 8 8 8 8 8 8 8 8 b 8 t21 81g713k72 b t 8 8 8 8 8 8 8 8 8 8 8 8 8 8 8"};

