/* XPM */
static char *Def_MTODlg_WxLedR1_XPM[]={
/* Def_MTODlg_WxLedR1 */
"15 16 61 1",
"      c None",
"0     c #5A5E5A",
"1     c #222622",
"2     c #121212",
"3     c #222222",
"4     c #4F534A",
"5     c #726662",
"6     c #42413A",
"7     c #9E969E",
"8     c #CEBEC6",
"9     c #D6CAD6",
"a     c #8A8286",
"b     c #524A4A",
"c     c #6A5E5E",
"d     c #72766A",
"e     c #664642",
"f     c #AE9696",
"g     c #DEC6C6",
"h     c #9B7F7A",
"i     c #7F726A",
"j     c #AEA6A6",
"k     c #4A2622",
"l     c #904544",
"m     c #BB7A75",
"n     c #D69690",
"o     c #E6A6A6",
"p     c #DE9A96",
"q     c #96544E",
"r     c #421E1A",
"s     c #7C2F2A",
"t     c #AE3833",
"u     c #9E3636",
"v     c #C0483C",
"w     c #C6554A",
"x     c #7A5252",
"y     c #551A17",
"z     c #A61E22",
"A     c #C2382E",
"B     c #D34C40",
"C     c #DA574A",
"D     c #5A0E0A",
"E     c #D13E35",
"F     c #E0655A",
"G     c #F47166",
"H     c #E66D5A",
"I     c #661E16",
"J     c #B63E3E",
"K     c #EE6656",
"L     c #F68E7A",
"M     c #FB897B",
"N     c #F47A74",
"O     c #FE9589",
"P     c #8A6662",
"Q     c #96322A",
"R     c #FDA299",
"S     c #FBB9A4",
"T     c #FEB09E",
"U     c #D66E62",
"V     c #523A32",
"W     c #9E4A42",
"X     c #5E4E46",
"               ",
"     01234     ",
"   567898abc   ",
"  defg    hei  ",
" jklmnoopnmqr  ",
" estuvvwwvutsx ",
" yuzABBBCBAzuy ",
" DtECFGHHFCEtD ",
" IJCKGLMMNHCEI ",
" svKGMOOOMGKEs ",
" PQGNORRROMGtq ",
"  lCLRSSSTLFlh ",
"  huNOTSSRUtx  ",
"   iVPmNFWeXa  ",
"     c664b     ",
"               "};

