/* XPM */
static char *Def_MTODlg_WxLedE2_XPM[]={
/* Def_MTODlg_WxLedE2 */
"15 15 53 1",
"      c None",
"0     c #A4A5A4",
"1     c #5A5D5A",
"2     c #292829",
"3     c #080C08",
"4     c #292C29",
"5     c #6A656A",
"6     c #5A595A",
"7     c #9C9D9C",
"8     c #C5C6C5",
"9     c #D5D6D5",
"a     c #CDCACD",
"b     c #A4A1A4",
"c     c #4A484A",
"d     c #6A6D6A",
"e     c #737573",
"f     c #ACAAAC",
"g     c #DEDEDE",
"h     c #EEEAEE",
"i     c #FFFAFF",
"j     c #EEEEEE",
"k     c #DEDADE",
"l     c #ACAEAC",
"m     c #414041",
"n     c #7B797B",
"o     c #BDBABD",
"p     c #D5D2D5",
"q     c #414441",
"r     c #949594",
"s     c #4A4C4A",
"t     c #B4B2B4",
"u     c #B4B6B4",
"v     c #C5C2C5",
"w     c #737173",
"x     c #9C999C",
"y     c #8B8D8B",
"z     c #CDCECD",
"A     c #626562",
"B     c #E6E2E6",
"C     c #E6E6E6",
"D     c #626162",
"E     c #F6F2F6",
"F     c #F6F6F6",
"G     c #7B7D7B",
"H     c #FFFFFF",
"I     c #8B898B",
"J     c #838583",
"K     c #6A696A",
"L     c #949194",
"M     c #525552",
"N     c #8B8D94",
"O     c #7B8183",
"P     c #8B9194",
"    012341     ",
"   56789abcd   ",
"  e6fghijkl1e  ",
" 7mno9kk9poeqr ",
" sdfbtouvo0fws ",
" qxftvv8vuu0yc ",
" 6tfaz9kkzztt1 ",
" AvakkhBCBppvD ",
" dopBjEFFjCkue ",
" GfBCiHiHijj0n ",
" IIzFHHHFHHaJy ",
"  KykiHHHHCLd7 ",
"  nMe0php7w6G  ",
"   IDsmmmcA    ",
"     NOeGP     "};

