/* XPM */
static char *Def_MTODlg_WxLedV3_XPM[]={
/* Def_MTODlg_WxLedV3 */
"17 18 62 1",
"      c None",
"0     c #5A5A5A",
"1     c #222622",
"2     c #0A0A02",
"3     c #5E6462",
"4     c #424242",
"5     c #7E8487",
"6     c #BEBEC6",
"7     c #CBD3CB",
"8     c #C6B2C6",
"9     c #969296",
"a     c #253627",
"b     c #6A7272",
"c     c #859D82",
"d     c #3B4E3A",
"e     c #62666A",
"f     c #9E9E9A",
"g     c #223E1E",
"h     c #52703E",
"i     c #7A9C6A",
"j     c #A6C687",
"k     c #BEDA9E",
"l     c #B6D69E",
"m     c #7AAA6A",
"n     c #426A3A",
"o     c #2C5E26",
"p     c #4A9322",
"q     c #559B37",
"r     c #67A93D",
"s     c #729642",
"t     c #75AE42",
"u     c #5A9642",
"v     c #12360A",
"w     c #42822A",
"x     c #52A925",
"y     c #68B334",
"z     c #7AC040",
"A     c #3A7A2A",
"B     c #163E16",
"C     c #5AAE36",
"D     c #9DDE58",
"E     c #7FCF40",
"F     c #93D054",
"G     c #6AC22E",
"H     c #5AA622",
"I     c #1A5212",
"J     c #B2E66A",
"K     c #BDF478",
"L     c #326A2A",
"M     c #577947",
"N     c #558835",
"O     c #A3EE5A",
"P     c #C4FE7E",
"Q     c #C6FA9A",
"R     c #528642",
"S     c #878D8A",
"T     c #9EC656",
"U     c #D2FD88",
"V     c #4F6547",
"W     c #9EC262",
"X     c #BEDE6A",
"Y     c #46573E",
"                 ",
"                 ",
"      01210      ",
"    3456789ab    ",
"   b4c7   7cde   ",
"  fghijkjljmng9  ",
"  dopqrsttrquod  ",
"  vwpxyyzyyqpAB  ",
"  vpxCzDEFEGHqv  ",
"  oCGFFDDDDEzCI  ",
"  oCEDJKKKJDErL  ",
"  MNDDOPQQPODuM  ",
"  iwzKQPQPPPzRS  ",
"   hNTPUUUKFNhf  ",
"   5VhsWXWsMV5   ",
"    S3dd4YdV5    ",
"      5bbbS      ",
"                 "};

