/* XPM */
static char *logo_aq[] = {
"118 90 31 1 0 0",
"  c #A5BAC8",
"! c #87A3B6",
"# c #C3D1DB",
"$ c #E1E8ED",
"% c #1D5277",
"& c #0F476E",
"' c #2D5E80",
"( c #698CA5",
") c #5B819B",
"* c #D2DCE4",
"+ c #4B7592",
", c #96AEBF",
"- c #3C6A89",
". c #B4C5D2",
"/ c #E8EEF1",
"0 c #6F90A7",
"1 c #174D72",
"2 c #ACC0CD",
"3 c #9DB4C4",
"4 c #8EA8BB",
"5 c #D9E2E8",
"6 c #BBCBD5",
"7 c #CBD6DE",
"8 c #7898AE",
"9 c #25587B",
": c #819EB2",
"; c #527A96",
"< c #587F9A",
"= c #6286A0",
"> c #346384",
"? c None",
"??????????????????????????????????????????????????????????????????????????????????????????????????????????????????????",
"??? !!!#$?????????????????????????????????????????????????????????????????????????????????????????????????????????????",
"? %&&&&&&'( ??????????????????????????????????????????????????????????????????????????????????????????????????????????",
"?%&&&&&&&&&&&) ???????????????????????????????????????????????????????????????????????????????????????????????????????",
"?&&&&&&&&&&&&&&&) ????????????????????????????????????????????????????????????????????????????????????????????????????",
"?&&&&&&&&&&&&&&&&&%(*?????????????????????????????????????????????????????????????????????????????????????????????????",
"?&&&&&&&&&&&&&&&&&&&&+ ?????????????????????????????????????????????# !(+++'&+++(,#???????????????????????????????????",
"?)&&&&&&&&&&&&&&&&&&&&&%!$?????????????????????????????????????*,('&&&&&&&&&&&&&&&&%(#????????????????????????????????",
"? &&&&&&&&&&&&&&&&&&&&&&&&($???????????????????????????????$ )%&&&&&&&&&&&&&&&&&&&&&&&+$??????????????????????????????",
"??%&&&&&&&&&&&&&&&&&&&&&&&&&+#??????????????????????????$,-&&&&&&&&&'+!,###??##.!)%&&&&%.?????????????????????????????",
"??!&&&&&&&&&&&&&&&&&&&&&&&&&&&+.??????????????????????,-&&&&&&&%)!#????????????????.+&&&&.????????????????????????????",
"???%&&&&&&&&&&&&&&&&&&&&&&&&&&&&' ?????????????????.)&&&&&&&-!#????????????/$##.     01&&%*???????????????????????????",
"??? &&&&&&&&&&&&&&&&&&&&&&&&&&&&&&' ?????????????!'&&&&&&-,$??????????$#23!!!!!!      4%&&-42*????????????????????????",
"????-&&&&&&&&&&&&&&&&&&&&&&&&&&&&&&&' ????????$(&&&&&&',$?????????563!!!4 67$??????????.&&& 4!4#??????????????????????",
"????*&&&&&&&&&&&&&&&&&&&&&&&&&&&&&&&&&-#????#)&&&&&%(*?????????7 !!!365?????????????????-&&.?5 !3/????????????????????",
"?????8&&&&&&&&&&&&&&&&&&&&&&&&&&&&&&&&&&+##+&&&&&',????????/6,!!,65?????????????????????!&&!???544/???????????????????",
"??????'&&&&&&&&&&&&&&&&&&&&&&&&&&&&&&&&&&&&&&&&+ ????????7,!!37/????????????????????????#&&!????/44???????????????????",
"??????*&&&&&&&&&&&&&&&&&&&&&&&&&&&&&&&&&&&&&&-#???????* !!37????????????????????????????#&&!?????/4 ??????????????????",
"???????!&&&&&&&&&&&&&&&&&&&&&&&&&&&&&&&&&&&&&%!?????64!46/?????????????????????????????? &&!??????#!/?????????????????",
"????????-&&&&&&&&&&&&&&&&&&&&&&&&&&&&&&&&&&&&&&% $ !!25?????????????????????????????????!&&!???????!#?????????????????",
"????????$%&&&&&&&&&&&&&&&&&&&&&&&&&&&&&&&&&&&&&&&%06????????????????????????????????????-&&#???????3 ?????????????????",
"?????????.&&&&&&&&&&&&&&&&&&&&&&&&&&&&&&&&&&&&&&&&&+$??????????????????????????????????$&&&????????  ?????????????????",
"??????????8&&&&&&&&&&&&&&&&&&&&&&&&&&&&&&&&&&&&&&&&&&!?????????????????????????????????,&&-????????  ?????????????????",
"???????????+&&&&&&&&&&&&&&&&&&&&&&&&&&&&&&&&&&&&&&&&&&% ???????????????????????????????'&&,????????  ?????????????????",
"????????????%&&&&&&&&&&&&&&&&&&&&&&&&&&&&&&&&&&&&&&&&&&&+*???????????????????????????? &&&?????????!6?????????????????",
"????????????*&&&&&&&&&&&&&&&&&&&&&&&&&&&&&&&&&&&&&&&&&&&&&8???????????????????????????'&&(????????5!5?????????????????",
"????????????? &&&&&&&&&&&&&&&&&&&&&&&&&&&&&&&&&&&&&&&&&&&&&% ????????????????????????,&&&$????????.!??????????????????",
"??????????????8&&&&&&&&&&&&&&&&&&&&&&&&&&&&&&&&&&&&&&&&&&&&&&+*?????????????????????$%&&8?????????4.??????????????????",
"???????????????+&&&&&&&&&&&&&&&&&&&&&&&&&&&&&&&&&&&&&&&&&&&&&&&8????????????????????+&&%?????????#!$??????????????????",
"????????????????-&&&&&&&&&&&&&&&&&&&&&&&&&&&&&&&+!!8+&&&&&&&&&&&'.?????????????????,&&&.?????????4 ???????????????????",
"????????????????*%&&&&&&&&&&&&&&&&&&&&&&&&&&&&&#??????.(%&&&&&&&&&)$??????????????*&&&)?????????2!$???????????????????",
"?????????????????*&&&&&&&&&&&&&&&&&&&&&&&&&&&&!?????????? '&&&&&&&&%,?????????????'&&%?????????5!.????????????????????",
"?????????????????(&&&&&&&&&&&&&&&&&&&&&&&&&&&&#????????????#+&&&&&&&&-*??????????+&&&#?????????44?????????????????????",
"????????????????+&&&&&&&&&&&&&&&&&&&&&&&&&&&&&???????????????#+&&&&&&&&!????????(&&&,????????? !$?????????????????????",
"???????????????-&&&+(&&&&&&&&&&&&&&&&&&&&&&&&&?????????????????#-&&&&&&&'#?????8&&&(?????????6!#??????????????????????",
"??????????????-&&&(??+&&&&&&&&&&&&&&&&&&&&&&&&#?????????????????? '&&&&&&&8??? &&&-?????????*!2???????????????????????",
"?????????????-&&&(???/9&&&&&&&&&&&&&&&&&&&&&&&.????????????????????!%&&&&&&%. &&&-?????????*!3????????????????????????",
"????????????-&&&,???/3:9&&&&&&&&&&&&&&&&&&&&&&8??????????????????????(&&&&&&&&&&-?????????/!,?????????????????????????",
"???????????-&&& ???/44**%&&&&&&&&&&&&&&&&&&&&&-???????????????????????#-&&&&&&&%$????????/44/?????????????????????????",
"??????????-&&& ???/44/??*%&&&&&&&&&&&&&&&&&&&&&$????????????????????????,%&&&&&&)???????544/??????????????????????????",
"?????????(&&&8???/44/????.&&&&&&&&&&&&&&&&&&&&&,?????????????????????????(&&&&&&&%.????*!4/???????????????????????????",
"????????8&&&(???/44/?????? &&&&&&&&&&&&&&&&&&&&-????????????????????????)&&&&&&&&&&)??7!3?????????????????????????????",
"???????.&&&)???/44/???????? &&&&&&&&&&&&&&&&&&&&$?????????????????????$-&&&+?!&&&&&&%!!3??????????????????????????????",
"??????*%&&-????,4/??????????8&&&&&&&&&&&&&&&&&&&!????????????????????#%&&&(???*+&&&&&&;/??????????????????????????????",
"??????-&&%*???3!*????????????(&&&&&&&&&&&&&&&&&&'???????????????????,&&&&,??????,%&&&&&'#?????????????????????????????",
"?????!&&&.???6!7??????????????(&&&&&&&&&&&&&&&&&& ?????????????????)&&&%.????????2'&&&&&&8????????????????????????????",
"????*&&&8???5!2????????????????)&&&&&&&&&&&&&&&&&+???????????????*'&&&-*????????2!32%&&&&&-*??????????????????????????",
"????+&&'????4,??????????????????-&&&&&&&&&&&&&&&&&#?????????????,&&&&)????????$4!6???)&&&&&&,?????????????????????????",
"??? &&&#???.!$???????????????????-&&&&&&&&&&&&&&&&)???????????$+&&&&,????????6!4$?????.%&&&&&+????????????????????????",
"???'&&(???$!.?????????????????????-&&&&&&&&&&&&&&&&$?????????,%&&&-*???????$,!2?????????(&&&&&%.??????????????????????",
"?? &&&$??? 4???????????????????????-&&&&&&&&&&&&&&&(???????$+&&&&8????????.!45???????????#'&&&&&8?????????????????????",
"??-&&(???$!#???????????????????????$%&&&&&&&&&&&&&&&$?????!%&&&'#???????74!6???????????????8&&&&&-*???????????????????",
"?$&&&$???.!?????????????????????????*%&&&&&&&&&&&&&&(???#-&&&&8???????$3!3$?????????????????#'&&&&&,??????????????????",
"?!&&)????4.??????????????????????????*%&&&&&&&&&&&&&&$$(&&&&'#???????2!47?????????????????????8&&&&&)?????????????????",
"?+&& ???$!5???????????????????????????*%&&&&&&&&&&&&&-%&&&&!???????6!!6????????????????????????#-&&&&'*???????????????",
"?&&&????#!?????????????????????????????*%&&&&&&&&&&&&&&&&+*??????#4!2????????????????????????????!&&&&&,??????????????",
"?&&'????6,??????????????????????????????*%&&&&&&&&&&&&&' ??????#4! $??????????????????????????????*-&&&&)?????????????",
"?&&+????  ???????????????????????????????*%&&&&&&&&&&&&.?????64! $??????????????????????????????????!%&&&'*???????????",
"?&&+????23????????????????????????????????*%&&&&&&&&&&&-??/.!! $?????????????????????????????????????$+&&&& ??????????",
"?&&+????#!?????????????????????????????????+&&&&&&&&&&&&! !!.??????????????????????????????????????????,%&&&(?????????",
"?&&%????5!5?????????????????????????????*(%&&&&&&&&&&&&&%!#??????????????????????????????????????????????)&&&-????????",
"?'&& ????4 ??????????????????????????? -&&&&&%&&&&&&&&&&&!????????????????????????????????????????????????#'&&%*??????",
"?8&&'????7!7???????????????????????.(&&&&&&',? &&&&&&&&&&%$?????????????????????????????????????????????????!&&%.?????",
"?$&&&+????2!7???????????????????.(%&&&&&&+.??*2<&&&&&&&&&&(??????????????????????????????????????????????????$+&& ????",
"??,&&&-#??? !2??????????????*,)&&&&&&&'!$563!!4.,&&&&&&&&&&#???????????????????????????????????????????????????#-& ???",
"???(&&&&+ $?#!!.5??????$#!+%&&&&&&&%;,63!!!3#/??? &&&&&&&&&+?????????????????????????????????????????????????????# ???",
"????,&&&&&&'+8+++;0!++&&&&&&&&&&%-=!!!!365???????? &&&&&&&&& ?????????????????????????????????????????????????????????",
"?????*+&&&&&&&&&&&&&&&&&&&&&1>;0!4 67$????????????? &&&&&&&&%?????????????????????????????????????????????????????????",
"???????$8-&&&&&&&&&&&&&&+(42#*$$???????????????????? &&&&&&&&8????????????????????????????????????????????????????????",
"???????????# !!!!!!!.#??????????????????????????????? &&&&&&&&*???????????????????????????????????????????????????????",
"?????????????????????????????????????????????????????? &&&&&&&+???????????????????????????????????????????????????????",
"??????????????????????????????????????????????????????? &&&&&&& ??????????????????????????????????????????????????????",
"???????????????????????????????????????????????????????? &&&&&&%??????????????????????????????????????????????????????",
"?????????????????????????????????????????????????????????.%&&&&&8?????????????????????????????????????????????????????",
"??????????????????????????????????????????????????????????*%&&&&&*????????????????????????????????????????????????????",
"???????????????????????????????????????????????????????????*%&&&&-????????????????????????????????????????????????????",
"????????????????????????????????????????????????????????????*%&&&&,???????????????????????????????????????????????????",
"?????????????????????????????????????????????????????????????*%&&&%$??????????????????????????????????????????????????",
"??????????????????????????????????????????????????????????????*%&&&)??????????????????????????????????????????????????",
"???????????????????????????????????????????????????????????????*%&&&.?????????????????????????????????????????????????",
"????????????????????????????????????????????????????????????????*%&&'?????????????????????????????????????????????????",
"?????????????????????????????????????????????????????????????????*'&&8????????????????????????????????????????????????",
"???????????????????????????????????????????????????????????????????&&&????????????????????????????????????????????????",
"????????????????????????????????????????????????????????????????????-&-???????????????????????????????????????????????",
"?????????????????????????????????????????????????????????????????????-&!??????????????????????????????????????????????",
"??????????????????????????????????????????????????????????????????????-&$?????????????????????????????????????????????",
"???????????????????????????????????????????????????????????????????????-+?????????????????????????????????????????????",
"????????????????????????????????????????????????????????????????????????(,????????????????????????????????????????????",
"?????????????????????????????????????????????????????????????????????????8$???????????????????????????????????????????",
"??????????????????????????????????????????????????????????????????????????????????????????????????????????????????????"
};
